{
    "asset" : {
        "generator" : "Khronos glTF Blender I/O v1.6.16",
        "version" : "2.0"
    },
    "scene" : 0,
    "scenes" : [
        {
            "name" : "Scene",
            "nodes" : [
                0
            ]
        }
    ],
    "nodes" : [
        {
            "mesh" : 0,
            "name" : "Cube.008",
            "scale" : [
                1,
                0.7308814525604248,
                1
            ],
            "translation" : [
                -1.3441381454467773,
                292.5729675292969,
                -0.13922119140625
            ]
        }
    ],
    "materials" : [
        {
            "doubleSided" : true,
            "name" : "grey",
            "pbrMetallicRoughness" : {
                "baseColorTexture" : {
                    "index" : 0
                },
                "metallicFactor" : 0,
                "roughnessFactor" : 0.5
            }
        },
        {
            "doubleSided" : true,
            "name" : "white",
            "pbrMetallicRoughness" : {
                "baseColorFactor" : [
                    0.800000011920929,
                    0.800000011920929,
                    0.800000011920929,
                    1
                ],
                "metallicFactor" : 0,
                "roughnessFactor" : 0.4000000059604645
            }
        },
        {
            "doubleSided" : true,
            "name" : "glass",
            "pbrMetallicRoughness" : {
                "baseColorTexture" : {
                    "index" : 1
                },
                "metallicFactor" : 0,
                "roughnessFactor" : 0.5
            }
        }
    ],
    "meshes" : [
        {
            "name" : "Cube.134",
            "primitives" : [
                {
                    "attributes" : {
                        "POSITION" : 0,
                        "TEXCOORD_0" : 1
                    },
                    "indices" : 2,
                    "material" : 0
                },
                {
                    "attributes" : {
                        "POSITION" : 3,
                        "TEXCOORD_0" : 4
                    },
                    "indices" : 5,
                    "material" : 1
                },
                {
                    "attributes" : {
                        "POSITION" : 6,
                        "TEXCOORD_0" : 7
                    },
                    "indices" : 8,
                    "material" : 2
                }
            ]
        }
    ],
    "textures" : [
        {
            "sampler" : 0,
            "source" : 0
        },
        {
            "sampler" : 0,
            "source" : 0
        }
    ],
    "images" : [
        {
            "mimeType" : "image/jpeg",
            "name" : "256",
            "uri" : "256.jpg"
        }
    ],
    "accessors" : [
        {
            "bufferView" : 0,
            "componentType" : 5126,
            "count" : 4468,
            "max" : [
                95.5608901977539,
                379.0581359863281,
                84.58930969238281
            ],
            "min" : [
                -71.22925567626953,
                -400.301513671875,
                -84.58930969238281
            ],
            "type" : "VEC3"
        },
        {
            "bufferView" : 1,
            "componentType" : 5126,
            "count" : 4468,
            "type" : "VEC2"
        },
        {
            "bufferView" : 2,
            "componentType" : 5123,
            "count" : 6834,
            "type" : "SCALAR"
        },
        {
            "bufferView" : 3,
            "componentType" : 5126,
            "count" : 1580,
            "max" : [
                66.67176818847656,
                180.91461181640625,
                69.17937469482422
            ],
            "min" : [
                -66.67176818847656,
                -365.80523681640625,
                -69.17937469482422
            ],
            "type" : "VEC3"
        },
        {
            "bufferView" : 4,
            "componentType" : 5126,
            "count" : 1580,
            "type" : "VEC2"
        },
        {
            "bufferView" : 5,
            "componentType" : 5123,
            "count" : 2370,
            "type" : "SCALAR"
        },
        {
            "bufferView" : 6,
            "componentType" : 5126,
            "count" : 1140,
            "max" : [
                60.821868896484375,
                45.03047180175781,
                68.63702392578125
            ],
            "min" : [
                -62.65929412841797,
                -400.301513671875,
                -68.63702392578125
            ],
            "type" : "VEC3"
        },
        {
            "bufferView" : 7,
            "componentType" : 5126,
            "count" : 1140,
            "type" : "VEC2"
        },
        {
            "bufferView" : 8,
            "componentType" : 5123,
            "count" : 1710,
            "type" : "SCALAR"
        }
    ],
    "bufferViews" : [
        {
            "buffer" : 0,
            "byteLength" : 53616,
            "byteOffset" : 0
        },
        {
            "buffer" : 0,
            "byteLength" : 35744,
            "byteOffset" : 53616
        },
        {
            "buffer" : 0,
            "byteLength" : 13668,
            "byteOffset" : 89360
        },
        {
            "buffer" : 0,
            "byteLength" : 18960,
            "byteOffset" : 103028
        },
        {
            "buffer" : 0,
            "byteLength" : 12640,
            "byteOffset" : 121988
        },
        {
            "buffer" : 0,
            "byteLength" : 4740,
            "byteOffset" : 134628
        },
        {
            "buffer" : 0,
            "byteLength" : 13680,
            "byteOffset" : 139368
        },
        {
            "buffer" : 0,
            "byteLength" : 9120,
            "byteOffset" : 153048
        },
        {
            "buffer" : 0,
            "byteLength" : 3420,
            "byteOffset" : 162168
        }
    ],
    "samplers" : [
        {
            "magFilter" : 9729,
            "minFilter" : 9987
        }
    ],
    "buffers" : [
        {
            "byteLength" : 165588,
            "uri" : "1.bin"
        }
    ]
}
